<?xml version="1.0" encoding="UTF-8"?>
<svg width="200" height="200" version="1.1" viewBox="0 0 52.917 52.917" xmlns="http://www.w3.org/2000/svg">
 <g stroke="#000">
  <path d="m50.982 26.66c0 1.6929-0.17154 3.3457-0.4982 4.942-0.32666 1.5963-0.80842 3.1361-1.4289 4.603-0.62044 1.4669-0.71138 2.2595-1.5927 3.5641-0.88136 1.3046-3.344 2.0997-2.9944 3.6292 0.36058 1.5771-2.9928 2.7144-4.2974 3.5957-1.3046 0.88136-2.6985 1.6405-4.1654 2.2609-1.4669 0.62044-3.0067 1.1022-4.603 1.4289-1.5963 0.32665-3.2491 0.4982-4.942 0.4982s-3.2121-0.97335-4.942-0.4982c-1.5712 0.43155-3.1361-0.80842-4.603-1.4289-1.4669-0.62044-2.8608-1.3796-4.1654-2.2609-1.3046-0.88136-2.5198-1.885-3.6292-2.9944-1.1094-1.1094-2.113-2.3246-2.9944-3.6292-0.88136-1.3046-1.6405-2.6985-2.2609-4.1654-0.62044-1.4669-0.23358-3.0067-0.56023-4.603-0.32665-1.5963-1.3668-3.2491-1.3668-4.942s0.17154-3.3457 0.4982-4.942 0.80842-3.1361 1.4289-4.603c0.62044-1.4669 1.3796-2.8608 2.2609-4.1654 0.88136-1.3046 1.5613-4.268 2.9944-3.6292 2.7728 1.236 2.3246-2.113 3.6292-2.9944 1.3046-0.88136 2.6985-1.6405 4.1654-2.2609 1.4669-0.62044 3.0067-1.1022 4.603-1.4289s3.2491-0.4982 4.942-0.4982 4.059-0.87117 4.942 0.4982c0.7277 1.1285 3.1361 0.80842 4.603 1.4289 1.4669 0.62044 2.8608 1.3796 4.1654 2.2609 1.3046 0.88136 2.8539 0.88269 3.9633 1.9921 1.1094 1.1094 1.7789 3.3269 2.6603 4.6314 0.88136 1.3046 2.7764 2.3644 2.2609 4.1654-0.43825 1.5312 1.1022 3.0067 1.4289 4.603 0.32666 1.5963 0.4982 3.2491 0.4982 4.942z" fill="#ccc" stroke-linecap="round" stroke-linejoin="round" stroke-width=".52917"/>
  <g fill="none" stroke-width=".26458px">
   <path d="m30.068 3.4077c-0.0088 2.1861 2.5064 2.0372 4.1427 2.3386"/>
   <path d="m46.037 14.165c-0.18596 0.8758 0.1243 1.8698 0.20045 2.6059"/>
   <path d="m44.5 38.487c-2.5457-0.4396-2.7946 1.2419-2.6059 2.94"/>
   <path d="m20.847 48.71c0.91439-0.99978 2.4401-0.66817 3.7418-0.66817"/>
   <path d="m8.1226 10.619c-0.343 5.6989-3.0828 10.823-5.2417 15.621"/>
   <path d="m49.645 26.861c0.26449 0.67268-0.14558 1.5043-0.20045 2.0713"/>
   <path d="m9.154 42.362c0.06682 0.08909 0.13364 0.17818 0.20045 0.26727 0.4009 0.245 0.80181 0.48999 1.2027 0.73499"/>
  </g>
  <g fill="#ccc" stroke-linecap="round" stroke-linejoin="round" stroke-width=".26458">
   <ellipse cx="17.907" cy="31.978" rx=".38693" ry=".35981"/>
   <ellipse cx="36.081" cy="29.066" rx=".38693" ry=".35981"/>
   <ellipse cx="33.409" cy="14.566" rx=".38693" ry=".35981"/>
   <ellipse cx="31.538" cy="47.374" rx=".38693" ry=".35981"/>
   <ellipse cx="15.034" cy="44.367" rx=".38693" ry=".35981"/>
   <ellipse cx="25.725" cy="18.575" rx=".38693" ry=".35981"/>
   <ellipse cx="16.17" cy="6.0136" rx=".38693" ry=".35981"/>
   <ellipse cx="38.453" cy="22.148" rx="4.4962" ry="4.3336"/>
  </g>
 </g>
</svg>
